<svg xmlns="http://www.w3.org/2000/svg" xmlns:xlink="http://www.w3.org/1999/xlink" width="14" height="16" viewBox="0 0 14 16">
    <defs>
        <path id="a" d="M0 16h14V0H0z"/>
    </defs>
    <g fill="none" fill-rule="evenodd">
        <mask id="b" fill="#fff">
            <use xlink:href="#a"/>
        </mask>
        <path fill="#FFF" fill-opacity=".8" d="M10 1.104l.38-.523c.477-.655 1.361-.775 1.972-.262l1.11.932c.608.51.718 1.462.24 2.119l-.458.63C12.468 2.711 11.337 1.692 10 1.104zM.756 4l-.458-.63c-.477-.655-.37-1.607.24-2.12L1.649.32c.609-.511 1.494-.396 1.971.262l.217.297.164.226C2.662 1.692 1.532 2.711.756 4zM7.2 8.28V4h.796v4.28H8v.717h-.004V9H7.2v-.003H4V8.28h3.2zm2.4 6.072L11.114 16l.507-.55-1.397-1.52C11.902 12.644 13 10.515 13 8.104 13 4.181 10.09 1 6.5 1S0 4.18 0 8.105c0 2.384 1.075 4.496 2.724 5.784l-1.433 1.56.505.551 1.546-1.683c.935.57 2.012.894 3.158.894a6.046 6.046 0 0 0 3.1-.86z" mask="url(#b)"/>
    </g>
</svg>
