<svg xmlns="http://www.w3.org/2000/svg" xmlns:xlink="http://www.w3.org/1999/xlink" width="20" height="20" viewBox="0 0 20 20">
    <defs>
        <path id="b" d="M22.5 0h138C172.926 0 183 10.074 183 22.5S172.926 45 160.5 45h-138C10.074 45 0 34.926 0 22.5S10.074 0 22.5 0z"/>
        <filter id="a" width="109.3%" height="137.8%" x="-4.6%" y="-14.4%" filterUnits="objectBoundingBox">
            <feOffset dy="2" in="SourceAlpha" result="shadowOffsetOuter1"/>
            <feGaussianBlur in="shadowOffsetOuter1" result="shadowBlurOuter1" stdDeviation="2.5"/>
            <feComposite in="shadowBlurOuter1" in2="SourceAlpha" operator="out" result="shadowBlurOuter1"/>
            <feColorMatrix in="shadowBlurOuter1" values="0 0 0 0 0 0 0 0 0 0 0 0 0 0 0 0 0 0 0.1 0"/>
        </filter>
    </defs>
    <g fill="none" fill-rule="evenodd">
        <g transform="translate(-14 -12)">
            <use fill="#000" filter="url(#a)" xlink:href="#b"/>
            <use fill="#FFF" fill-opacity=".9" xlink:href="#b"/>
        </g>
        <path fill="#39B54A" d="M16.535 16.337l-1.783-.891c-.495-.198-.99-.396-1.485-.694-.099-.099-.298-.099-.396-.198-.397-.198-.594-.594-.495-.99v-.099c0-.495 0-.89.297-1.287.296-.297.296-.792.495-1.188 0-.099.1-.099.1-.198.098-.198.296-.297.395-.495.198-.396.296-.891.198-1.287 0-.1 0-.1-.099-.198-.198-.297-.099-.495-.099-.792.198-.693.296-1.386.198-2.08 0-.692-.198-1.386-.693-1.88a2.365 2.365 0 0 0-1.089-.595c-.1 0-.1 0-.198-.099-.397-.396-.892-.594-1.485-.693-.891-.099-1.782 0-2.673.396S6.337 4.16 6.139 5.05c-.198.99-.1 1.882.099 2.773v.198c.099.297.099.495-.1.792-.296.594 0 1.584.496 1.98.099 0 .099.1.099.198.198.594.396 1.188.792 1.683 0 0 .099.1.099.198v1.188c0 .1-.1.297-.198.396l-.891.595c-.693.297-1.485.594-2.179.89-.297.1-.594.298-.89.496C.296 13.168-.199 7.624 3.266 3.86 6.832 0 12.871-.099 16.435 3.564c3.763 3.763 3.367 9.604.1 12.773m-1.684 1.287c-.99.594-1.882 1.089-2.97 1.287-2.871.594-5.346-.1-7.624-1.881l-.099-.1c.297-.197.594-.296.892-.494.594-.297 1.287-.495 1.88-.792.496-.198.99-.495 1.387-.99.099-.199.297-.397.297-.694v-1.683s0-.099-.1-.099c-.494-.396-.692-.99-.791-1.584v-.198c0-.198-.1-.297-.297-.297-.1 0-.198-.099-.198-.099-.198-.198-.297-.495-.297-.792 0-.1 0-.198.099-.297.099-.1.198-.198.099-.396l-.297-1.782c0-.594.099-1.188.198-1.683.297-.694.792-1.189 1.485-1.387.693-.198 1.386-.297 2.178-.198.296.1.594.198.791.495 0 .1.1.1.2.1.99.098 1.385.791 1.484 1.683.1.89-.099 1.782-.297 2.673v.099c-.198.198-.099.297 0 .396.198.099.198.297.198.396 0 .198-.1.297-.1.495-.098.198-.197.297-.395.297-.1 0-.198.099-.198.198-.099.594-.198 1.09-.495 1.584a.213.213 0 0 1-.198.198c-.199.1-.199.297-.199.495v1.287c0 .594.298.99.694 1.288.495.396.99.594 1.584.792.594.297 1.188.495 1.783.792.099 0 .198.099.297.198-.297.198-.594.495-.99.693M10 0C4.455 0 0 4.455 0 10s4.455 10 10 10 10-4.455 10-10S15.545 0 10 0"/>
    </g>
</svg>
