<svg xmlns="http://www.w3.org/2000/svg" width="18" height="15" viewBox="0 0 18 15">
    <g fill="none" fill-rule="evenodd">
        <path fill="#EB1C24" d="M2.274 13.517l13.38.03c.549.002.88-.607.581-1.068L9.405 1.952a.692.692 0 0 0-1.166.01L1.689 12.46a.692.692 0 0 0 .585 1.057m15 .913L.69 14.393a.692.692 0 0 1-.585-1.058L8.224.325a.692.692 0 0 1 1.167-.01l8.465 13.047a.692.692 0 0 1-.582 1.068"/>
        <path fill="#EB1C24" d="M9.703 11.718c0 .221-.08.41-.24.566a.792.792 0 0 1-.573.234.791.791 0 0 1-.572-.234.762.762 0 0 1-.24-.566.78.78 0 0 1 .24-.572.78.78 0 0 1 .572-.24c.222 0 .412.08.573.24.16.16.24.35.24.572M9.65 4.566c0 .198-.066.862-.196 1.993-.13 1.13-.245 2.223-.344 3.28h-.463a106.842 106.842 0 0 0-.323-3.28c-.128-1.131-.193-1.795-.193-1.993 0-.225.072-.415.214-.57a.71.71 0 0 1 .545-.23c.222 0 .404.076.546.228a.805.805 0 0 1 .214.572"/>
    </g>
</svg>
