<svg xmlns="http://www.w3.org/2000/svg" viewBox="0 0 229.44 140.48"><defs><style>.cls-1{fill:#b5311b;}.cls-2{fill:#fff;}.cls-3{fill:#000806;}.cls-4{fill:#201600;}</style></defs><title>Ресурс 1</title><g id="Слой_2" data-name="Слой 2"><g id="Слой_1-2" data-name="Слой 1"><path class="cls-1" d="M167.78,15.8l-98-.08c-28.2,0-38-7.74-41.47-13.13C26.47-.33,23.71-.79,21.15,1.25,13.34,7.46,0,21.19,0,44.53c0,40.14,30.49,56.78,61.66,56.78l98,.08c28.2,0,38,7.74,41.47,13.13,1.87,2.91,4.63,3.37,7.18,1.34,7.81-6.21,21.15-19.95,21.15-43.29,0-40.14-30.49-56.78-61.66-56.78"/><path class="cls-2" d="M55.87,71.16V45.49a2.91,2.91,0,0,1,.79-2.16,2.88,2.88,0,0,1,2.13-.79H72.36a2.71,2.71,0,1,1,0,5.41H61.72v7.66h8.34a2.71,2.71,0,1,1,0,5.41H61.72v7.66H72.8a2.71,2.71,0,1,1,0,5.41h-14a2.73,2.73,0,0,1-2.92-2.93"/><path class="cls-2" d="M49.81,43.36a2.88,2.88,0,0,0-2.14-.79h-16a2.73,2.73,0,0,0-2.93,2.92V71.3a2.93,2.93,0,1,0,5.85,0V48H44.74V71.3a2.71,2.71,0,0,0,2.93,2.93,2.88,2.88,0,0,0,2.14-.79,2.91,2.91,0,0,0,.78-2.13V45.49a2.91,2.91,0,0,0-.78-2.13"/><path class="cls-2" d="M78.17,47.2a2.71,2.71,0,0,1,1.95-4.65H97.23a2.71,2.71,0,1,1,0,5.41H91.6V71.3a2.91,2.91,0,0,1-.78,2.13,3.3,3.3,0,0,1-4.29,0,2.91,2.91,0,0,1-.78-2.13V48H80.12a2.63,2.63,0,0,1-1.95-.76"/><path class="cls-2" d="M102.47,71.23V45.49a2.91,2.91,0,0,1,.79-2.16,2.88,2.88,0,0,1,2.13-.79h7a11.45,11.45,0,0,1,8.26,3.11,10.77,10.77,0,0,1,0,15.41,11.47,11.47,0,0,1-8.26,3.1h-4v7.06a2.93,2.93,0,1,1-5.85,0m5.85-12.45h4a5.42,5.42,0,1,0,0-10.82h-4Z"/><path class="cls-2" d="M150.49,71.38a5.66,5.66,0,0,1,1-2.7l6.88-10.8L152.14,48a5.67,5.67,0,0,1-1-2.71A2.79,2.79,0,0,1,152,43.2a2.85,2.85,0,0,1,2.07-.87,2.81,2.81,0,0,1,1.63.48,3.42,3.42,0,0,1,1.06,1.1l5.1,8.56h.18l5.08-8.56a3.36,3.36,0,0,1,1.07-1.1,2.85,2.85,0,0,1,1.64-.48,3,3,0,0,1,2.93,2.92,5.68,5.68,0,0,1-1,2.71l-6.2,9.92,6.88,10.8a5.67,5.67,0,0,1,1,2.7,3,3,0,0,1-2.92,2.93,2.91,2.91,0,0,1-1.64-.47,3.28,3.28,0,0,1-1.07-1.09l-5.76-9.48h-.18l-5.76,9.48a3.29,3.29,0,0,1-1.07,1.09,2.91,2.91,0,0,1-1.64.47,3,3,0,0,1-2.92-2.93"/><path class="cls-2" d="M175.74,71.25A8.89,8.89,0,0,1,176.2,69l7.47-23.4a4.67,4.67,0,0,1,1.57-2.3,4.28,4.28,0,0,1,2.72-.87,4.24,4.24,0,0,1,2.71.87,4.69,4.69,0,0,1,1.56,2.3l7.7,23.47a8.64,8.64,0,0,1,.44,2.24,3,3,0,0,1-2.92,2.93q-2.24,0-3.15-2.93L192.91,67H183l-1.18,4.24q-.9,2.92-3.15,2.93a2.84,2.84,0,0,1-2.07-.87,2.79,2.79,0,0,1-.88-2.06m8.83-9.87h6.77l-3.25-11.5h-.26Z"/><path class="cls-2" d="M199.59,45.45h.55c.44,0,.71-.17.71-.49s-.22-.44-.52-.44h-.74Zm.74-1.49c.69,0,1.08.36,1.08,1a.82.82,0,0,1-.61.81c-.07,0-.07,0,0,.08a1,1,0,0,1,.44.54l.31.71c0,.07,0,.12-.07.12h-.41a.12.12,0,0,1-.12-.08l-.21-.52a.81.81,0,0,0-.86-.59h-.28v1.09a.09.09,0,0,1-.1.1h-.39a.09.09,0,0,1-.1-.1v-3a.09.09,0,0,1,.1-.1Zm-2.71,1.61A2.54,2.54,0,1,0,200.15,43,2.43,2.43,0,0,0,197.62,45.56Zm5.63,0a3.1,3.1,0,1,1-3.1-3.18A3,3,0,0,1,203.25,45.56Z"/><path class="cls-2" d="M148.67,45.15a2.87,2.87,0,0,0-3.08-2.57A3.1,3.1,0,0,0,143,44.64l-5.74,13-6.16-13a3.1,3.1,0,0,0-2.57-2.06,2.87,2.87,0,0,0-3.08,2.57,4.57,4.57,0,0,0,.54,2.38l8.13,16.75-.91,2.11a3.58,3.58,0,0,1-1,1.51,2.44,2.44,0,0,1-1.39.42l-1.39,0a3.1,3.1,0,0,0-2.94,1.49,2.71,2.71,0,0,0-.24,2.17c.7,2.28,3.82,2.28,4.84,2.28a7.47,7.47,0,0,0,4.87-1.74,10.89,10.89,0,0,0,2.52-3.69l9.67-21.25a4.58,4.58,0,0,0,.54-2.38"/><path class="cls-2" d="M186,101.23H87.33v17.66a21.61,21.61,0,0,0,21.59,21.59h98.67V122.82A21.61,21.61,0,0,0,186,101.23"/><path class="cls-3" d="M91.29,105.19h0v13.7a17.65,17.65,0,0,0,17.63,17.63h94.71v-13.7A17.65,17.65,0,0,0,186,105.19ZM205.61,138.5H108.92a19.63,19.63,0,0,1-19.61-19.61V103.21H186a19.63,19.63,0,0,1,19.61,19.61Z"/><path class="cls-4" d="M193.4,127.93a3.93,3.93,0,0,1,0,.4,1.37,1.37,0,0,1-.06.29,1,1,0,0,1-.11.23,1.52,1.52,0,0,1-.24.24,5,5,0,0,1-.72.43,9.7,9.7,0,0,1-1.37.56,13.12,13.12,0,0,1-1.87.46,12.84,12.84,0,0,1-2.32.19,12.14,12.14,0,0,1-3.92-.59,8,8,0,0,1-3-1.75,7.67,7.67,0,0,1-1.9-2.86,11.9,11.9,0,0,1,.05-8,8.46,8.46,0,0,1,2-3,8.66,8.66,0,0,1,3.09-1.88,11.65,11.65,0,0,1,4-.65,12,12,0,0,1,1.88.14,14.83,14.83,0,0,1,1.69.37A8.55,8.55,0,0,1,192,113a4.62,4.62,0,0,1,.83.48,1.65,1.65,0,0,1,.31.29.77.77,0,0,1,.11.23,2,2,0,0,1,.07.32,3.23,3.23,0,0,1,0,.44,2.71,2.71,0,0,1,0,.48,1.17,1.17,0,0,1-.11.34.49.49,0,0,1-.16.2.39.39,0,0,1-.23.06,1.45,1.45,0,0,1-.68-.27A11.2,11.2,0,0,0,191,115a10.12,10.12,0,0,0-1.66-.61,8.82,8.82,0,0,0-2.35-.27,7.27,7.27,0,0,0-2.71.49,5.62,5.62,0,0,0-2.09,1.44,6.63,6.63,0,0,0-1.34,2.31,10.52,10.52,0,0,0,0,6.2,6,6,0,0,0,1.31,2.24,5.52,5.52,0,0,0,2.1,1.36,8.2,8.2,0,0,0,2.82.46,9.05,9.05,0,0,0,2.33-.27,10,10,0,0,0,1.69-.6c.47-.22.85-.42,1.15-.6a1.59,1.59,0,0,1,.71-.27.48.48,0,0,1,.21,0,.3.3,0,0,1,.13.16,1.25,1.25,0,0,1,.08.33,4.51,4.51,0,0,1,0,.53m-18.25,2.19a.31.31,0,0,1-.07.21.48.48,0,0,1-.23.14,2.42,2.42,0,0,1-.45.08q-.29,0-.72,0a7.14,7.14,0,0,1-.8,0,2.14,2.14,0,0,1-.48-.11.7.7,0,0,1-.28-.18A.75.75,0,0,1,172,130l-2-4.46A7.53,7.53,0,0,0,169,124a4.65,4.65,0,0,0-1.14-1.06,4.77,4.77,0,0,0-1.47-.61,8.07,8.07,0,0,0-1.85-.2h-1.24v8a.29.29,0,0,1-.07.2.46.46,0,0,1-.24.13,2.89,2.89,0,0,1-.45.09,6,6,0,0,1-.72,0,5.9,5.9,0,0,1-.7,0,3,3,0,0,1-.46-.09.46.46,0,0,1-.24-.13.29.29,0,0,1-.07-.2V112.58a.27.27,0,0,1,.07-.18.46.46,0,0,1,.24-.13,3,3,0,0,1,.46-.09,5.92,5.92,0,0,1,.7,0,6,6,0,0,1,.72,0,2.91,2.91,0,0,1,.45.09.46.46,0,0,1,.24.13.28.28,0,0,1,.07.18v7.49h1.24a6.88,6.88,0,0,0,1.8-.21,4.16,4.16,0,0,0,2.42-1.65,7.31,7.31,0,0,0,.82-1.49l1.68-4a1.1,1.1,0,0,1,.14-.25.63.63,0,0,1,.26-.19,2.06,2.06,0,0,1,.47-.11,7,7,0,0,1,.78,0,7.12,7.12,0,0,1,.72,0,2.37,2.37,0,0,1,.44.08.4.4,0,0,1,.21.14.37.37,0,0,1,.05.2,1.16,1.16,0,0,1-.06.35c0,.13-.09.27-.16.44l-1.77,3.8a10.54,10.54,0,0,1-.79,1.49,5.59,5.59,0,0,1-.88,1.07,4.75,4.75,0,0,1-1.05.74,5.76,5.76,0,0,1-1.27.46v0a8.54,8.54,0,0,1,1.43.55,5.84,5.84,0,0,1,1.16.79,5.92,5.92,0,0,1,1,1.12,12,12,0,0,1,.88,1.57l2.1,4.35a3,3,0,0,1,.21.52A1.15,1.15,0,0,1,175.15,130.13Zm-22.08,0a.28.28,0,0,1-.07.19.59.59,0,0,1-.24.14,2.7,2.7,0,0,1-.46.08c-.19,0-.43,0-.72,0s-.52,0-.71,0a2.32,2.32,0,0,1-.46-.08.6.6,0,0,1-.24-.14.28.28,0,0,1-.07-.19v-12q0-.44,0-.91c0-.32,0-.6.05-.86h0l-.3.42-.35.47-.38.5-.38.49-9.63,11.89-.21.2a.77.77,0,0,1-.27.13,1.82,1.82,0,0,1-.39.07l-.56,0a5.85,5.85,0,0,1-.65,0,1.42,1.42,0,0,1-.4-.09.51.51,0,0,1-.21-.15.34.34,0,0,1-.06-.21V112.58a.25.25,0,0,1,.08-.18.61.61,0,0,1,.26-.14,2.92,2.92,0,0,1,.46-.08c.19,0,.42,0,.68,0s.52,0,.72,0a2.51,2.51,0,0,1,.45.08.5.5,0,0,1,.24.14.27.27,0,0,1,.07.18v12.06c0,.26,0,.53,0,.82a7.83,7.83,0,0,1-.06.85h0l.65-.85c.25-.34.5-.67.78-1l9.61-11.91a1.57,1.57,0,0,1,.19-.18,1,1,0,0,1,.27-.13,2.5,2.5,0,0,1,.39-.08,4.74,4.74,0,0,1,.58,0,5.87,5.87,0,0,1,.65,0,1.37,1.37,0,0,1,.4.09.53.53,0,0,1,.21.14.32.32,0,0,1,.06.21Zm-24,0a.29.29,0,0,1-.07.2.48.48,0,0,1-.25.13,3.18,3.18,0,0,1-.45.09,5.78,5.78,0,0,1-.72,0,5.9,5.9,0,0,1-.7,0,2.86,2.86,0,0,1-.46-.09.49.49,0,0,1-.24-.13.29.29,0,0,1-.07-.2V114.22h0l-7.84,16a.47.47,0,0,1-.14.17.88.88,0,0,1-.28.12,2.35,2.35,0,0,1-.43.07l-.59,0a5.64,5.64,0,0,1-.62,0,2.57,2.57,0,0,1-.43-.08.83.83,0,0,1-.27-.12.41.41,0,0,1-.13-.15l-7.5-16h0v15.92a.29.29,0,0,1-.07.2.48.48,0,0,1-.25.13,3.24,3.24,0,0,1-.46.09,6,6,0,0,1-.72,0,5.82,5.82,0,0,1-.71,0,2.9,2.9,0,0,1-.45-.09.42.42,0,0,1-.23-.13.32.32,0,0,1-.06-.2V113.33a.94.94,0,0,1,.38-.85,1.54,1.54,0,0,1,.86-.26h1.82a4.85,4.85,0,0,1,1,.09,2.34,2.34,0,0,1,.73.27,1.7,1.7,0,0,1,.52.47,3.05,3.05,0,0,1,.37.67L116.91,127H117l6.61-13.2A3.75,3.75,0,0,1,124,113a2,2,0,0,1,.5-.47,1.82,1.82,0,0,1,.6-.26,3.35,3.35,0,0,1,.77-.08h1.91a1.91,1.91,0,0,1,.5.06,1.17,1.17,0,0,1,.4.2,1,1,0,0,1,.27.34,1.08,1.08,0,0,1,.11.5Z"/></g></g></svg>