<?xml version="1.0" encoding="UTF-8"?>
<svg width="36px" height="36px" viewBox="0 0 36 36" version="1.1" xmlns="http://www.w3.org/2000/svg" xmlns:xlink="http://www.w3.org/1999/xlink">
    <!-- Generator: Sketch 45.1 (43504) - http://www.bohemiancoding.com/sketch -->
    <title>Icon</title>
    <desc>Created with Sketch.</desc>
    <defs>
        <circle id="path-1" cx="17" cy="17" r="17"></circle>
        <filter x="-5.9%" y="-2.9%" width="111.8%" height="111.8%" filterUnits="objectBoundingBox" id="filter-2">
            <feOffset dx="0" dy="1" in="SourceAlpha" result="shadowOffsetOuter1"></feOffset>
            <feGaussianBlur stdDeviation="0.5" in="shadowOffsetOuter1" result="shadowBlurOuter1"></feGaussianBlur>
            <feColorMatrix values="0 0 0 0 0   0 0 0 0 0   0 0 0 0 0  0 0 0 0.2 0" type="matrix" in="shadowBlurOuter1"></feColorMatrix>
        </filter>
    </defs>
    <g id="Prod" stroke="none" stroke-width="1" fill="none" fill-rule="evenodd">
        <g id="Prod_2-Copy-4" transform="translate(-1067.000000, -1301.000000)">
            <g id="1-copy" transform="translate(730.000000, 1233.000000)">
                <g id="Group" transform="translate(335.000000, 20.000000)">
                    <g id="Icon" transform="translate(3.000000, 48.000000)">
                        <g id="Oval-2">
                            <use fill="black" fill-opacity="1" filter="url(#filter-2)" xlink:href="#path-1"></use>
                            <use fill="#00B2EC" fill-rule="evenodd" xlink:href="#path-1"></use>
                        </g>
                        <path d="M27.6722019,21.5809057 L24.526801,20.0022997 L27.2605638,18.9510236 C27.6412807,18.8045699 27.8163166,18.4142685 27.6498392,18.0800352 C27.4863988,17.7564355 27.0272746,17.5976565 26.654288,17.7402434 L22.898194,19.184721 L18.518155,16.985983 L22.8772118,14.7833782 L26.6760984,16.2314809 C27.0617848,16.3769678 27.5079331,16.2104554 27.6672324,15.8883057 C27.8328815,15.5538307 27.6570174,15.1642543 27.2763004,15.0197341 L24.5019537,13.9621744 L27.6630912,12.364718 C27.8375749,12.2765074 27.9623639,12.1339206 28.0139912,11.9632997 C28.0661707,11.7926787 28.0393908,11.6148076 27.9383448,11.4620705 C27.7370811,11.1594963 27.2558704,11.0444601 26.907179,11.2201562 L23.7672998,12.8067373 L24.1038436,10.2097227 C24.1270345,10.0335433 24.0701616,9.86026398 23.9439922,9.72154386 C23.8183749,9.58379043 23.6391978,9.49727161 23.4406949,9.47817947 C23.0182896,9.43443672 22.6483399,9.7017267 22.6049951,10.0620607 L22.1784486,13.6293911 L17.8282264,15.8448046 L17.8282264,11.4456368 L21.1205028,9.29184983 C21.276213,9.19179734 21.3780872,9.04389366 21.4073519,8.87520613 C21.4377209,8.69902675 21.384161,8.51438882 21.2607524,8.36841852 C21.0205612,8.08300308 20.5611609,8.01750979 20.2315192,8.22994007 L17.8282264,9.79912079 L17.8282264,6.61024976 C17.8282264,6.22115675 17.3906366,5.95 16.9977721,5.95 C16.6071163,5.95 16.1717351,6.22115675 16.1717351,6.61024976 L16.1717351,9.77978698 L13.8048852,8.2296984 C13.4810411,8.0192015 13.0089411,8.08300308 12.7679217,8.36817685 C12.6417522,8.51704722 12.5873641,8.70458522 12.6180092,8.88221464 C12.6467217,9.04824377 12.7472155,9.19348905 12.8987845,9.2903998 L16.1717351,11.4253363 L16.1717351,15.8426295 L11.8866683,13.6757923 L11.430305,10.1060451 C11.3847514,9.77302014 11.0678094,9.52192223 10.6923381,9.52192223 C10.6622452,9.52192223 10.6310479,9.52337226 10.6023354,9.52675568 C10.1948385,9.56759836 9.89860269,9.89506485 9.94222363,10.2597489 L10.290639,12.8572469 L7.07676981,11.2435984 C6.96302408,11.1868053 6.83381776,11.1565962 6.70323103,11.1565962 C6.43322295,11.1565962 6.18254061,11.2837161 6.04891698,11.4886545 C5.84378814,11.8016206 5.96774891,12.2056974 6.32775968,12.3903353 L9.56205888,14.0138924 L6.7921294,15.0787022 C6.60715454,15.149754 6.46497237,15.2792905 6.39236284,15.4433863 C6.31920114,15.6077237 6.32389453,15.7872865 6.40478652,15.9479988 C6.56380968,16.2689401 7.00857759,16.4327942 7.3984052,16.2892406 L11.191218,14.831471 L15.4911933,16.9896081 L11.1821073,19.1673206 L7.42159608,17.7334766 C7.0480573,17.5916147 6.59031354,17.750877 6.42908173,18.0754434 C6.26232827,18.4087101 6.43736418,18.7990114 6.8194615,18.9459484 L9.55598508,19.9890077 L6.34736149,21.6106314 C5.98928329,21.7943026 5.86615078,22.1991044 6.0729361,22.5127955 C6.2071119,22.7165256 6.4583464,22.8429204 6.72725015,22.8429204 C6.86114987,22.8429204 6.99201268,22.8117446 7.10327367,22.7542265 L10.3334317,21.1219692 L9.99081404,23.7566848 C9.96872749,23.9321392 10.0258764,24.1049352 10.1523219,24.2431719 C10.2782153,24.3806837 10.4576685,24.4674442 10.6509258,24.4858113 C10.6804666,24.4894364 10.712216,24.4901614 10.7436893,24.4901614 C11.1274431,24.4901614 11.4493546,24.2383385 11.4926995,23.9021718 L11.9244915,20.2995571 L16.1717351,18.1373116 L16.1717351,22.5260875 L13.2552062,24.661749 C12.9437858,24.8901297 12.9084473,25.3070151 13.1740381,25.5880804 C13.3137355,25.7396092 13.5348771,25.8299948 13.7656816,25.8299948 C13.9741234,25.8299948 14.1140969,25.7516928 14.2187319,25.6789493 L16.1717351,24.2448636 L16.1717351,27.3897502 C16.1717351,27.7788433 16.6071163,28.05 16.9977721,28.05 C17.3906366,28.05 17.8282264,27.7788433 17.8282264,27.3897502 L17.8282264,24.2238381 L19.8110465,25.6818494 C20.1415165,25.9145802 20.5882169,25.8594788 20.841384,25.5909805 C20.9683817,25.4573355 21.0354696,25.2913063 21.0296719,25.1228605 C21.0241502,24.9396726 20.9335954,24.7758185 20.7759526,24.661024 L17.8282264,22.504337 L17.8282264,18.1269197 L22.1649206,20.320341 L22.624873,23.9236806 C22.6704265,24.2559806 22.9881967,24.5063535 23.3642202,24.5063535 C23.3998348,24.5063535 23.4219213,24.5049034 23.4462165,24.5017617 C23.6452716,24.4826696 23.8236205,24.3961507 23.9486856,24.2588807 C24.0751311,24.1201605 24.1320039,23.9463979 24.108537,23.7697351 L23.757913,21.1386447 L26.9218113,22.7266759 C27.0350049,22.7839523 27.1650395,22.8141614 27.2970066,22.8141614 C27.5672907,22.8141614 27.817697,22.6867999 27.9507685,22.4818614 C28.1564495,22.1676869 28.0322126,21.7633685 27.6722019,21.5809057" id="Fill-1" fill="#FFFFFF"></path>
                    </g>
                </g>
            </g>
        </g>
    </g>
</svg>