<svg xmlns="http://www.w3.org/2000/svg" viewBox="0 0 213.31 139.84"><defs><style>.cls-1{fill:rgb(235, 28, 36);}.cls-2{fill:#fff;}.cls-3{fill:#000703;}</style></defs><title>Ресурс 4</title><g id="Слой_2" data-name="Слой 2"><g id="Слой_1-2" data-name="Слой 1"><path class="cls-1" d="M156,14.69,64.9,14.61c-26.22,0-35.34-7.2-38.56-12.21C24.61-.3,22-.73,19.66,1.16,12.4,6.94,0,19.7,0,41.4,0,78.72,28.35,94.19,57.33,94.19l91.08.08c26.22,0,35.34,7.2,38.56,12.21,1.74,2.71,4.3,3.13,6.68,1.24,7.26-5.78,19.66-18.54,19.66-40.24,0-37.32-28.35-52.78-57.33-52.78"/><path class="cls-2" d="M51.94,64.22V40.36a2.54,2.54,0,0,1,2.72-2.74H67.27a2.52,2.52,0,1,1,0,5H57.38v7.12h7.75a2.52,2.52,0,1,1,0,5H57.38v7.12h10.3a2.52,2.52,0,1,1,0,5h-13a2.54,2.54,0,0,1-2.72-2.72"/><path class="cls-2" d="M46.31,38.37a2.67,2.67,0,0,0-2-.74H29.45a2.54,2.54,0,0,0-2.72,2.72v24a2.72,2.72,0,1,0,5.44,0V42.65H41.6v21.7a2.7,2.7,0,0,0,.73,2,3.07,3.07,0,0,0,4,0,2.71,2.71,0,0,0,.73-2v-24a2.7,2.7,0,0,0-.73-2"/><path class="cls-2" d="M72.68,41.95a2.52,2.52,0,0,1,1.81-4.33H90.4a2.52,2.52,0,1,1,0,5H85.16v21.7a2.7,2.7,0,0,1-.73,2,3.07,3.07,0,0,1-4,0,2.7,2.7,0,0,1-.73-2V42.65H74.49a2.45,2.45,0,0,1-1.81-.71"/><path class="cls-2" d="M95.26,64.28V40.36A2.54,2.54,0,0,1,98,37.62h6.48a10.65,10.65,0,0,1,7.68,2.89,10,10,0,0,1,0,14.33,10.67,10.67,0,0,1-7.68,2.88H100.7v6.56a2.72,2.72,0,1,1-5.44,0m5.44-11.57h3.76a5,5,0,1,0,0-10.06H100.7Z"/><path class="cls-2" d="M139.91,64.43a5.27,5.27,0,0,1,.92-2.51l6.4-10-5.79-9.22a5.28,5.28,0,0,1-.92-2.52,2.6,2.6,0,0,1,.82-1.91,2.65,2.65,0,0,1,1.92-.81,2.6,2.6,0,0,1,1.51.45,3.18,3.18,0,0,1,1,1l4.74,8h.16l4.72-8a3.11,3.11,0,0,1,1-1,2.65,2.65,0,0,1,1.52-.45,2.76,2.76,0,0,1,2.72,2.72,5.27,5.27,0,0,1-.92,2.52l-5.77,9.22,6.4,10a5.27,5.27,0,0,1,.92,2.51,2.76,2.76,0,0,1-2.72,2.72,2.7,2.7,0,0,1-1.52-.44,3,3,0,0,1-1-1l-5.36-8.81h-.16l-5.36,8.81a3.05,3.05,0,0,1-1,1,2.7,2.7,0,0,1-1.52.44,2.76,2.76,0,0,1-2.72-2.72"/><path class="cls-2" d="M163.39,64.3a8.31,8.31,0,0,1,.43-2.09l6.94-21.75a4.35,4.35,0,0,1,1.46-2.14,4.34,4.34,0,0,1,5,0,4.36,4.36,0,0,1,1.45,2.14l7.16,21.82a8,8,0,0,1,.41,2.08,2.76,2.76,0,0,1-2.72,2.72q-2.09,0-2.92-2.72l-1.29-4h-9.2L169,64.3Q168.21,67,166.12,67a2.65,2.65,0,0,1-1.92-.81,2.6,2.6,0,0,1-.82-1.91m8.21-9.18h6.3l-3-10.69h-.25Z"/><path class="cls-2" d="M185.56,40.32h.51c.41,0,.67-.16.67-.46s-.21-.41-.49-.41h-.69Zm.69-1.39c.64,0,1,.34,1,.89a.77.77,0,0,1-.57.75c-.06,0-.06,0,0,.08a.93.93,0,0,1,.41.5l.29.66c0,.07,0,.11-.07.11h-.39a.11.11,0,0,1-.11-.07l-.19-.48a.75.75,0,0,0-.8-.55h-.26v1a.08.08,0,0,1-.09.09h-.36a.08.08,0,0,1-.09-.09V39a.08.08,0,0,1,.09-.09Zm-2.52,1.49A2.36,2.36,0,1,0,186.08,38,2.26,2.26,0,0,0,183.73,40.42Zm5.23,0a2.88,2.88,0,1,1-2.88-3A2.75,2.75,0,0,1,189,40.42Z"/><path class="cls-2" d="M138.21,40a2.67,2.67,0,0,0-2.86-2.39A2.88,2.88,0,0,0,133,39.57l-5.34,12.07-5.73-12.08a2.88,2.88,0,0,0-2.39-1.92A2.66,2.66,0,0,0,116.64,40a4.25,4.25,0,0,0,.5,2.21l7.56,15.57-.85,2a3.35,3.35,0,0,1-1,1.4,2.27,2.27,0,0,1-1.29.38l-1.3,0a2.88,2.88,0,0,0-2.73,1.39,2.53,2.53,0,0,0-.23,2c.65,2.12,3.55,2.12,4.5,2.12a7,7,0,0,0,4.53-1.62A10.14,10.14,0,0,0,128.72,62l9-19.75a4.26,4.26,0,0,0,.5-2.21"/><path class="cls-2" d="M164.89,90.12H30.8v22.38c0,15.08,13.16,27.35,29.34,27.35H194.22V117.47c0-15.08-13.16-27.35-29.33-27.35"/><path class="cls-3" d="M36.18,95.13h0v17.36c0,12.32,10.75,22.34,24,22.34H188.85V117.47c0-12.32-10.75-22.34-24-22.34Zm155.35,42.21H60.14c-14.69,0-26.65-11.14-26.65-24.84V92.62h131.4c14.69,0,26.65,11.14,26.65,24.84Z"/><polygon class="cls-3" points="55.48 124.9 55.48 104.8 58.7 104.8 65.22 113.85 71.68 104.8 74.84 104.8 74.84 124.9 71.68 124.9 71.68 109.63 66.08 117.21 64.24 117.21 58.64 109.63 58.64 124.9 55.48 124.9"/><path class="cls-3" d="M84.58,117.12h7.35l-3.68-8.44ZM78,124.9l8.79-20.22h3l8.79,20.22H95.2l-2.18-5H83.49l-2.15,5Z"/><path class="cls-3" d="M102.59,122.35a10.08,10.08,0,0,1-3-7.5,10,10,0,0,1,3-7.47,10.35,10.35,0,0,1,7.58-3,10.89,10.89,0,0,1,5.46,1.35V109a9.75,9.75,0,0,0-5.43-1.58,7.22,7.22,0,0,0-7.38,7.47,7.23,7.23,0,0,0,7.5,7.47,8.93,8.93,0,0,0,5.74-1.84v3.19a10.69,10.69,0,0,1-5.89,1.61,10.53,10.53,0,0,1-7.58-2.93"/><polygon class="cls-3" points="118.39 104.8 134.84 104.8 134.84 107.7 128.18 107.7 128.18 124.9 125.02 124.9 125.02 107.7 118.39 107.7 118.39 104.8"/><polygon class="cls-3" points="138.3 124.9 138.3 104.8 152.6 104.8 152.6 107.7 141.46 107.7 141.46 112.73 150.53 112.73 150.53 115.63 141.46 115.63 141.46 122 152.97 122 152.97 124.9 138.3 124.9"/><path class="cls-3" d="M159.87,113.7h5.23c2.38,0,3.79-1.09,3.79-3s-1.41-3-3.79-3h-5.23Zm-3.16,11.2V104.8h8.64a7,7,0,0,1,4.91,1.64,5.33,5.33,0,0,1,1.81,4.19,5.61,5.61,0,0,1-1.81,4.31,6.83,6.83,0,0,1-4.91,1.67h-5.48v8.3Z"/></g></g></svg>