<svg xmlns="http://www.w3.org/2000/svg" viewBox="0 0 229.44 140.48"><defs><style>.cls-1{fill:rgb(235, 28, 36);}.cls-2{fill:#fff;}.cls-3{fill:#000703;}.cls-4{fill:#201600;}</style></defs><title>Ресурс 5</title><g id="Слой_2" data-name="Слой 2"><g id="Слой_1-2" data-name="Слой 1"><path class="cls-1" d="M167.78,15.8l-98-.08c-28.2,0-38-7.74-41.47-13.13C26.47-.33,23.71-.79,21.15,1.25,13.34,7.46,0,21.19,0,44.53c0,40.14,30.49,56.78,61.66,56.78l98,.08c28.2,0,38,7.74,41.47,13.13,1.87,2.91,4.63,3.37,7.18,1.34,7.81-6.21,21.15-19.95,21.15-43.29,0-40.14-30.49-56.78-61.66-56.78"/><path class="cls-2" d="M55.87,71.16V45.49a2.73,2.73,0,0,1,2.93-2.95H72.36a2.71,2.71,0,1,1,0,5.41H61.72v7.66h8.34a2.71,2.71,0,1,1,0,5.41H61.72v7.65H72.8a2.71,2.71,0,1,1,0,5.41h-14a2.73,2.73,0,0,1-2.93-2.93"/><path class="cls-2" d="M49.81,43.36a2.88,2.88,0,0,0-2.14-.79h-16a2.73,2.73,0,0,0-2.92,2.92V71.3a2.93,2.93,0,1,0,5.85,0V48H44.74V71.3a2.91,2.91,0,0,0,.78,2.13,3.3,3.3,0,0,0,4.29,0,2.91,2.91,0,0,0,.78-2.13V45.49a2.91,2.91,0,0,0-.78-2.13"/><path class="cls-2" d="M78.17,47.2a2.71,2.71,0,0,1,1.95-4.65H97.23a2.71,2.71,0,1,1,0,5.41H91.6V71.3a2.91,2.91,0,0,1-.78,2.13,2.93,2.93,0,0,1-5.07-2.13V48H80.12a2.63,2.63,0,0,1-1.95-.76"/><path class="cls-2" d="M102.47,71.23V45.49a2.73,2.73,0,0,1,2.93-2.95h7a11.44,11.44,0,0,1,8.26,3.11,10.77,10.77,0,0,1,0,15.41,11.46,11.46,0,0,1-8.26,3.1h-4v7.06a2.93,2.93,0,1,1-5.85,0m5.85-12.45h4a5.42,5.42,0,1,0,0-10.82h-4Z"/><path class="cls-2" d="M150.49,71.38a5.66,5.66,0,0,1,1-2.7l6.88-10.8L152.14,48a5.68,5.68,0,0,1-1-2.71A2.79,2.79,0,0,1,152,43.2a2.85,2.85,0,0,1,2.07-.87,2.81,2.81,0,0,1,1.63.48,3.41,3.41,0,0,1,1.06,1.1l5.1,8.56h.18l5.08-8.56a3.36,3.36,0,0,1,1.07-1.1,2.85,2.85,0,0,1,1.64-.48,3,3,0,0,1,2.93,2.92,5.67,5.67,0,0,1-1,2.71l-6.2,9.92,6.88,10.8a5.66,5.66,0,0,1,1,2.7,3,3,0,0,1-2.92,2.93,2.91,2.91,0,0,1-1.64-.47,3.28,3.28,0,0,1-1.07-1.09l-5.76-9.48h-.18l-5.76,9.48a3.29,3.29,0,0,1-1.07,1.09,2.91,2.91,0,0,1-1.64.47,3,3,0,0,1-2.92-2.93"/><path class="cls-2" d="M175.74,71.25A8.93,8.93,0,0,1,176.2,69l7.47-23.4a4.67,4.67,0,0,1,1.57-2.3,4.67,4.67,0,0,1,5.42,0,4.69,4.69,0,0,1,1.56,2.3l7.7,23.47a8.63,8.63,0,0,1,.44,2.24,3,3,0,0,1-2.93,2.93q-2.24,0-3.14-2.93L192.91,67H183l-1.18,4.24q-.9,2.93-3.15,2.93a2.84,2.84,0,0,1-2.07-.87,2.79,2.79,0,0,1-.88-2.06m8.83-9.87h6.77l-3.26-11.5h-.26Z"/><path class="cls-2" d="M199.59,45.45h.55c.44,0,.72-.17.72-.49s-.22-.44-.52-.44h-.74Zm.74-1.49c.69,0,1.08.36,1.08,1a.82.82,0,0,1-.61.81c-.07,0-.07,0,0,.08a1,1,0,0,1,.44.54l.31.71c0,.07,0,.11-.07.11h-.41a.12.12,0,0,1-.11-.08l-.21-.52a.81.81,0,0,0-.86-.59h-.28v1.09a.09.09,0,0,1-.1.1h-.39a.09.09,0,0,1-.1-.1v-3a.09.09,0,0,1,.1-.1Zm-2.71,1.61A2.54,2.54,0,1,0,200.15,43,2.44,2.44,0,0,0,197.62,45.56Zm5.63,0a3.1,3.1,0,1,1-3.1-3.18A3,3,0,0,1,203.25,45.56Z"/><path class="cls-2" d="M148.67,45.15a2.87,2.87,0,0,0-3.08-2.57A3.1,3.1,0,0,0,143,44.65l-5.74,13-6.16-13a3.1,3.1,0,0,0-2.57-2.06,2.87,2.87,0,0,0-3.08,2.57,4.57,4.57,0,0,0,.54,2.38l8.13,16.75-.91,2.11a3.59,3.59,0,0,1-1,1.51,2.45,2.45,0,0,1-1.39.42l-1.39,0a3.1,3.1,0,0,0-2.94,1.49,2.71,2.71,0,0,0-.24,2.17c.7,2.28,3.82,2.28,4.84,2.28a7.47,7.47,0,0,0,4.87-1.74,10.89,10.89,0,0,0,2.52-3.69l9.66-21.25a4.58,4.58,0,0,0,.54-2.38"/><path class="cls-2" d="M186,101.23H87.33v17.66a21.61,21.61,0,0,0,21.59,21.59h98.67V122.82A21.61,21.61,0,0,0,186,101.23"/><path class="cls-3" d="M91.29,105.19h0v13.7a17.65,17.65,0,0,0,17.63,17.63h94.71v-13.7A17.65,17.65,0,0,0,186,105.19ZM205.61,138.5H108.92a19.63,19.63,0,0,1-19.61-19.61V103.21H186a19.63,19.63,0,0,1,19.61,19.61Z"/><path class="cls-4" d="M182,116.93c0-1.19,1.29-2.17,2.91-2.17s2.91,1,2.91,2.17v9.58c0,1.21-1.32,2.17-2.91,2.17s-2.91-1-2.91-2.17Zm-3.37,9.42a4.06,4.06,0,0,0,1.81,3.31,7.29,7.29,0,0,0,4.47,1.37,7.2,7.2,0,0,0,4.44-1.37,4,4,0,0,0,1.84-3.31v-9.26a4,4,0,0,0-1.84-3.31,7.89,7.89,0,0,0-8.88,0,4,4,0,0,0-1.84,3.31Zm-9.49-11.41v15.9h3.37v-15.9h4V112.6H165.18v2.35Zm-15.28,2c0-1.19,1.29-2.17,2.91-2.17s2.91,1,2.91,2.17v1h3.37v-.82a4,4,0,0,0-1.84-3.31,7.89,7.89,0,0,0-8.88,0,4,4,0,0,0-1.84,3.31v9.26a4.06,4.06,0,0,0,1.81,3.31,7.29,7.29,0,0,0,4.47,1.37,7.19,7.19,0,0,0,4.44-1.37,4,4,0,0,0,1.84-3.31v-.82H159.7v1c0,1.21-1.32,2.17-2.91,2.17s-2.91-1-2.91-2.17Zm-15.31,0c0-1.19,1.29-2.17,2.91-2.17s2.91,1,2.91,2.17v9.58c0,1.21-1.32,2.17-2.91,2.17s-2.91-1-2.91-2.17Zm-3.37,9.42a4.06,4.06,0,0,0,1.81,3.31,7.29,7.29,0,0,0,4.47,1.37,7.2,7.2,0,0,0,4.44-1.37,4,4,0,0,0,1.84-3.31v-9.26a4,4,0,0,0-1.84-3.31,7.89,7.89,0,0,0-8.88,0,4,4,0,0,0-1.84,3.31Zm-9-11.41c1.59,0,2.91,1,2.91,2.17v4.13c0,1.19-1.32,2.17-2.91,2.17h-2.91v-8.46Zm-2.91,15.9v-5.11h2.91a7.2,7.2,0,0,0,4.44-1.37,4,4,0,0,0,1.84-3.31v-3.79a4,4,0,0,0-1.84-3.31,7.2,7.2,0,0,0-4.44-1.37H119.9v18.25Zm-6.12,0V112.6H104.59v18.25H108v-15.9h5.82v15.9Z"/></g></g></svg>