<svg xmlns="http://www.w3.org/2000/svg" xmlns:xlink="http://www.w3.org/1999/xlink" width="14" height="16" viewBox="0 0 14 16">
    <defs>
        <path id="a" d="M14 .08v14H0v-14z"/>
        <path id="c" d="M3.706 2.477H.218V.247h3.488v2.23z"/>
    </defs>
    <g fill="none" fill-rule="evenodd">
        <g transform="translate(0 .081)">
            <mask id="b" fill="#fff">
                <use xlink:href="#a"/>
            </mask>
            <path fill="#FFF" fill-opacity=".8" d="M3.59 3.265a4.01 4.01 0 0 0-1.568 2.246.218.218 0 0 1-.268.155A.217.217 0 0 1 1.6 5.4a4.447 4.447 0 0 1 1.739-2.488.218.218 0 0 1 .304.05.214.214 0 0 1-.052.302M1.79 7.51a.219.219 0 0 1-.256-.172 4.354 4.354 0 0 1-.08-.753.217.217 0 0 1 .215-.22h.004c.12 0 .217.094.219.213.004.227.028.456.071.679a.216.216 0 0 1-.173.253m11.608 1.573a1.445 1.445 0 0 0-.288-.446 1.423 1.423 0 0 0-.513-.325c-.738-.503-1.23-1.095-1.505-1.81-.002-.005-.006-.008-.009-.013l-.823-2.116a5.23 5.23 0 0 0-2.807-2.91 5.163 5.163 0 0 0-2.63-.422l-.014-.036a1.436 1.436 0 0 0-.767-.798 1.455 1.455 0 0 0-1.918.73 1.418 1.418 0 0 0-.03 1.101l.012.031C.226 3.483-.497 5.95.354 8.136l.827 2.14v.002c.268.7.305 1.478.11 2.311a1.3 1.3 0 0 0-.107 1.147l.004.01c.182.457.737.648 1.2.472l10.478-3.96a.908.908 0 0 0 .532-1.175" mask="url(#b)"/>
        </g>
        <g transform="translate(3.75 12.626)">
            <mask id="d" fill="#fff">
                <use xlink:href="#c"/>
            </mask>
            <path fill="#FFF" fill-opacity=".8" d="M3.653.247l-.409.156L.627 1.4l-.409.155c.184.34.471.614.838.772a1.78 1.78 0 0 0 1.354.032l.16-.061c.44-.168.79-.495.984-.922.164-.361.192-.754.099-1.129" mask="url(#d)"/>
        </g>
    </g>
</svg>
