<?xml version="1.0" encoding="UTF-8"?><!DOCTYPE svg PUBLIC "-//W3C//DTD SVG 1.1//EN" "http://www.w3.org/Graphics/SVG/1.1/DTD/svg11.dtd"><svg xmlns="http://www.w3.org/2000/svg" xmlns:xlink="http://www.w3.org/1999/xlink"><defs><path id="b" d="M22.5 0h138C172.926 0 183 10.074 183 22.5S172.926 45 160.5 45h-138C10.074 45 0 34.926 0 22.5S10.074 0 22.5 0z"/><filter id="a" width="109.3%" height="137.8%" x="-4.6%" y="-14.4%" filterUnits="objectBoundingBox"><feOffset dy="2" in="SourceAlpha" result="shadowOffsetOuter1"/><feGaussianBlur in="shadowOffsetOuter1" result="shadowBlurOuter1" stdDeviation="2.5"/><feComposite in="shadowBlurOuter1" in2="SourceAlpha" operator="out" result="shadowBlurOuter1"/><feColorMatrix in="shadowBlurOuter1" values="0 0 0 0 0 0 0 0 0 0 0 0 0 0 0 0 0 0 0.1 0"/></filter><path id="a" d="M0 15.788h13.97V0H0z"/><path id="a" d="M14.33 3.352H.006V.005h14.326z"/><path id="c" d="M.016.01h2.485v5.518H.016z"/><path id="e" d="M0 .01h2.485v5.518H0V.01z"/><path id="g" d="M.019.01h2.485v5.518H.019z"/></defs><symbol id="btn" viewBox="0 0 19 19"><title>BTN</title><g fill="none" fill-rule="evenodd"><path fill="#F9F9F9" opacity=".1" d="M-226-107h1350v719H-226z"/><path d="M9.443 0a9.443 9.443 0 1 1 0 18.887A9.443 9.443 0 0 1 9.443 0z" fill="#EB1C24"/><path d="M12.5 9.5L8.13 5.122 6.963 6.287l3.168 3.168-3.168 3.168 1.165 1.165L12.5 9.5z" fill="#FFF"/></g></symbol><symbol id="fill-1" viewBox="0 0 20 20"><g fill="none" fill-rule="evenodd"><g transform="translate(-14 -12)"><use fill="#000" filter="url(#a)" xlink:href="#b"/><use fill="#FFF" fill-opacity=".9" xlink:href="#b"/></g><path fill="#39B54A" d="M16.535 16.337l-1.783-.891c-.495-.198-.99-.396-1.485-.694-.099-.099-.298-.099-.396-.198-.397-.198-.594-.594-.495-.99v-.099c0-.495 0-.89.297-1.287.296-.297.296-.792.495-1.188 0-.099.1-.099.1-.198.098-.198.296-.297.395-.495.198-.396.296-.891.198-1.287 0-.1 0-.1-.099-.198-.198-.297-.099-.495-.099-.792.198-.693.296-1.386.198-2.08 0-.692-.198-1.386-.693-1.88a2.365 2.365 0 0 0-1.089-.595c-.1 0-.1 0-.198-.099-.397-.396-.892-.594-1.485-.693-.891-.099-1.782 0-2.673.396S6.337 4.16 6.139 5.05c-.198.99-.1 1.882.099 2.773v.198c.099.297.099.495-.1.792-.296.594 0 1.584.496 1.98.099 0 .099.1.099.198.198.594.396 1.188.792 1.683 0 0 .099.1.099.198v1.188c0 .1-.1.297-.198.396l-.891.595c-.693.297-1.485.594-2.179.89-.297.1-.594.298-.89.496-3.17-3.269-3.665-8.813-.2-12.577C6.832 0 12.871-.099 16.435 3.564c3.763 3.763 3.367 9.604.1 12.773m-1.684 1.287c-.99.594-1.882 1.089-2.97 1.287-2.871.594-5.346-.1-7.624-1.881l-.099-.1c.297-.197.594-.296.892-.494.594-.297 1.287-.495 1.88-.792.496-.198.99-.495 1.387-.99.099-.199.297-.397.297-.694v-1.683s0-.099-.1-.099c-.494-.396-.692-.99-.791-1.584v-.198c0-.198-.1-.297-.297-.297-.1 0-.198-.099-.198-.099-.198-.198-.297-.495-.297-.792 0-.1 0-.198.099-.297.099-.1.198-.198.099-.396l-.297-1.782c0-.594.099-1.188.198-1.683.297-.694.792-1.189 1.485-1.387.693-.198 1.386-.297 2.178-.198.296.1.594.198.791.495 0 .1.1.1.2.1.99.098 1.385.791 1.484 1.683.1.89-.099 1.782-.297 2.673v.099c-.198.198-.099.297 0 .396.198.099.198.297.198.396 0 .198-.1.297-.1.495-.098.198-.197.297-.395.297-.1 0-.198.099-.198.198-.099.594-.198 1.09-.495 1.584a.213.213 0 0 1-.198.198c-.199.1-.199.297-.199.495v1.287c0 .594.298.99.694 1.288.495.396.99.594 1.584.792.594.297 1.188.495 1.783.792.099 0 .198.099.297.198-.297.198-.594.495-.99.693M10 0C4.455 0 0 4.455 0 10s4.455 10 10 10 10-4.455 10-10S15.545 0 10 0"/></g></symbol><symbol id="page-1" viewBox="0 0 14 16"><g fill="none" fill-rule="evenodd"><mask id="b" fill="#fff"><use xlink:href="#a"/></mask><path fill="#B5B3B3" d="M9.795 1.13l.4-.536c.5-.67 1.43-.793 2.073-.268l1.166.953c.64.523.755 1.495.253 2.167l-.482.644a7.498 7.498 0 0 0-3.41-2.96zm-9 2.96l-.482-.644c-.501-.67-.39-1.643.253-2.167L1.732.326a1.435 1.435 0 0 1 2.072.268l.227.303.173.232A7.496 7.496 0 0 0 .794 4.09zM7 8.271V3.646h.735V8.27h.003v.776h-.003v.004H7v-.004H4.046V8.27H7zm3.17 6.117L11.718 16l.517-.538-1.428-1.487c1.716-1.257 2.839-3.34 2.839-5.697C13.646 4.44 10.67 1.33 7 1.33S.354 4.44.354 8.28c0 2.331 1.099 4.396 2.785 5.656l-1.465 1.527.516.538 1.581-1.646a6.395 6.395 0 0 0 6.398.034z" mask="url(#b)"/></g></symbol><symbol id="page-2" viewBox="0 0 16 16"><g fill="none" fill-rule="evenodd"><g transform="translate(.83 12.502)"><mask id="b" fill="#fff"><use xlink:href="#a"/></mask><path fill="#B5B3B3" d="M1.574.005C.594.357.005.805.005 1.29c0 1.138 3.207 2.061 7.163 2.061 3.956 0 7.163-.923 7.163-2.06 0-.488-.588-.935-1.57-1.287a8.305 8.305 0 0 1-1.072.8c.613.159 1.058.333 1.321.486-.71.414-2.739.982-5.842.982-3.103 0-5.131-.569-5.842-.982.263-.153.708-.327 1.32-.486a8.294 8.294 0 0 1-1.072-.8" mask="url(#b)"/></g><path fill="#B5B3B3" d="M0 6.651c0 2.291 1.046 4.347 2.702 5.754.355.301.737.574 1.143.812a8.208 8.208 0 0 0 4.152 1.115c1.52 0 2.942-.408 4.152-1.115a7.99 7.99 0 0 0 1.144-.812c1.656-1.407 2.702-3.463 2.702-5.754H0z"/><g transform="translate(3.214 .023)"><mask id="d" fill="#fff"><use xlink:href="#c"/></mask><path fill="#B5B3B3" d="M.848.141c-.751.54-1.04 1.263-.674 2.12.203.477 1.268 1.622.812 2.1-.61.64.381 1.596.994.953.607-.637.658-1.393.283-2.163-.183-.374-1.184-1.502-.706-1.845C2.273.791 1.574-.38.847.141" mask="url(#d)"/></g><g transform="translate(6.6 .023)"><mask id="f" fill="#fff"><use xlink:href="#e"/></mask><path fill="#B5B3B3" d="M.832.141c-.75.54-1.04 1.263-.674 2.12.203.477 1.268 1.622.813 2.1-.61.64.38 1.596.993.953.607-.637.659-1.393.283-2.163-.183-.374-1.184-1.502-.706-1.845C2.257.791 1.558-.38.83.141" mask="url(#f)"/></g><g transform="translate(9.952 .023)"><mask id="h" fill="#fff"><use xlink:href="#g"/></mask><path fill="#B5B3B3" d="M.85.141C.1.681-.188 1.404.178 2.261c.203.477 1.268 1.622.812 2.1-.61.64.381 1.596.994.953.607-.637.658-1.393.283-2.163-.183-.374-1.184-1.502-.706-1.845C2.276.791 1.577-.38.85.141" mask="url(#h)"/></g></g></symbol></svg>